<?xml version="1.0" encoding="UTF-8"?>
<svg version="1.1" xmlns="http://www.w3.org/2000/svg" width="150" height="150">
<path d="M0 0 C49.5 0 99 0 150 0 C150 49.5 150 99 150 150 C100.5 150 51 150 0 150 C0 100.5 0 51 0 0 Z " fill="#F6F1EB" transform="translate(0,0)"/>
<path d="M0 0 C0.969375 0.185625 1.93875 0.37125 2.9375 0.5625 C3.948125 0.706875 4.95875 0.85125 6 1 C6.33 0.67 6.66 0.34 7 0 C14.10414334 -0.58230683 14.10414334 -0.58230683 17.5 1.625 C19.37956836 4.60098323 19.31424507 6.54330418 19 10 C17.02 10.99 17.02 10.99 15 12 C15.33 11.34 15.66 10.68 16 10 C16.04022391 7.6670134 16.04320247 5.33293334 16 3 C14.02 2.34 12.04 1.68 10 1 C9.94610913 2.95803507 9.90725783 4.91648909 9.875 6.875 C9.84019531 8.51082031 9.84019531 8.51082031 9.8046875 10.1796875 C9.69939466 13.1371051 9.69939466 13.1371051 12 15 C11.01 17.475 11.01 17.475 10 20 C12.97 20 15.94 20 19 20 C18.67 19.01 18.34 18.02 18 17 C19.6875 15.875 19.6875 15.875 22 15 C24.75 15.875 24.75 15.875 27 17 C27.495 15.515 27.495 15.515 28 14 C30.31 14.66 32.62 15.32 35 16 C34.67 16.66 34.34 17.32 34 18 C36.31 18.33 38.62 18.66 41 19 C40.67 20.32 40.34 21.64 40 23 C38.02 22.34 36.04 21.68 34 21 C34 21.66 34 22.32 34 23 C32.36935236 24.05771739 30.69719127 25.05273046 29 26 C28.01 26.66 27.02 27.32 26 28 C26 26.68 26 25.36 26 24 C26.99 24 27.98 24 29 24 C29 23.34 29 22.68 29 22 C28.46890625 22.2165625 27.9378125 22.433125 27.390625 22.65625 C26.68421875 22.9346875 25.9778125 23.213125 25.25 23.5 C24.55390625 23.7784375 23.8578125 24.056875 23.140625 24.34375 C21 25 21 25 17 25 C16.67 24.34 16.34 23.68 16 23 C12.58343976 22.83322718 12.58343976 22.83322718 9 23 C8.34 23.66 7.68 24.32 7 25 C7 23.35 7 21.7 7 20 C2.60685207 21.01160848 2.60685207 21.01160848 -0.375 24.125 C-0.58125 24.74375 -0.7875 25.3625 -1 26 C-1.66 25.67 -2.32 25.34 -3 25 C-2.65066406 24.25234375 -2.30132812 23.5046875 -1.94140625 22.734375 C-1.48636719 21.74953125 -1.03132813 20.7646875 -0.5625 19.75 C-0.11003906 18.77546875 0.34242187 17.8009375 0.80859375 16.796875 C1.78382356 14.50748305 2.4974274 12.42621254 3 10 C1.02 10 -0.96 10 -3 10 C-3 10.99 -3 11.98 -3 13 C-3.66 13 -4.32 13 -5 13 C-4.39254603 8.14036821 -2.27241033 4.2594482 0 0 Z " fill="#B5ADA5" transform="translate(47,63)"/>
<path d="M0 0 C0.66 0 1.32 0 2 0 C2.83819158 1.62249941 3.6704116 3.24808497 4.5 4.875 C4.9640625 5.77992187 5.428125 6.68484375 5.90625 7.6171875 C7 10 7 10 7 12 C6.67 12.33 6.34 12.66 6 13 C7.32 13.33 8.64 13.66 10 14 C10 14.99 10 15.98 10 17 C8.68 17 7.36 17 6 17 C6 17.66 6 18.32 6 19 C9.3 19 12.6 19 16 19 C15.34 19.99 14.68 20.98 14 22 C13.34 22 12.68 22 12 22 C11.34 23.32 10.68 24.64 10 26 C10 23 10 23 11 21 C9.741875 21.33 8.48375 21.66 7.1875 22 C4.02197204 22.83030241 1.27407556 23 -2 23 C-2.33 23.99 -2.66 24.98 -3 26 C-3.6875 24.3125 -3.6875 24.3125 -4 22 C-2.5625 19.25 -2.5625 19.25 -1 17 C-1.66 17 -2.32 17 -3 17 C-4.7295177 13.21153266 -5.47601228 11.3066632 -4.01953125 7.30859375 C-2.7551477 4.81878525 -1.43582 2.39463939 0 0 Z " fill="#F1ECE4" transform="translate(92,64)"/>
<path d="M0 0 C2.31 0.66 4.62 1.32 7 2 C6.67 2.66 6.34 3.32 6 4 C8.31 4.33 10.62 4.66 13 5 C12.67 6.32 12.34 7.64 12 9 C10.02 8.34 8.04 7.68 6 7 C6 7.66 6 8.32 6 9 C4.36935236 10.05771739 2.69719127 11.05273046 1 12 C0.01 12.66 -0.98 13.32 -2 14 C-2 12.68 -2 11.36 -2 10 C-1.01 10 -0.02 10 1 10 C1 9.34 1 8.68 1 8 C-2.63 8.66 -6.26 9.32 -10 10 C-8.68 7.36 -7.36 4.72 -6 2 C-4.35 2.33 -2.7 2.66 -1 3 C-0.67 2.01 -0.34 1.02 0 0 Z " fill="#EBE7E1" transform="translate(75,77)"/>
<path d="M0 0 C2.85947552 -0.23828963 5.1975057 -0.42704675 8 0 C10.5625 2.1875 10.5625 2.1875 12 5 C11.93255665 7.83262075 11.35776381 9.38969703 9.9375 11.8125 C6.75444301 13.7634059 3.67569327 13.1807718 0 13 C0 8.71 0 4.42 0 0 Z " fill="#968B83" transform="translate(100,63)"/>
<path d="M0 0 C0.33 0.99 0.66 1.98 1 3 C4.3 3 7.6 3 11 3 C10.01 4.485 10.01 4.485 9 6 C8.34 6 7.68 6 7 6 C6.34 7.32 5.68 8.64 5 10 C5 7 5 7 6 5 C4.741875 5.33 3.48375 5.66 2.1875 6 C-0.97802796 6.83030241 -3.72592444 7 -7 7 C-7.33 7.99 -7.66 8.98 -8 10 C-8.75 8.3125 -8.75 8.3125 -9 6 C-7.0625 3.25 -7.0625 3.25 -5 1 C-5 1.66 -5 2.32 -5 3 C-4.01 3 -3.02 3 -2 3 C-1.34 2.01 -0.68 1.02 0 0 Z " fill="#9A958F" transform="translate(97,80)"/>
<path d="M0 0 C-0.33 1.65 -0.66 3.3 -1 5 C1.97 5 4.94 5 8 5 C7.67 4.01 7.34 3.02 7 2 C8.32 1.34 9.64 0.68 11 0 C10.67 0.94875 10.34 1.8975 10 2.875 C8.89840809 5.77062452 8.89840809 5.77062452 9 8 C9.66 8.33 10.32 8.66 11 9 C9.35 9.33 7.7 9.66 6 10 C5.67 9.34 5.34 8.68 5 8 C1.58343976 7.83322718 1.58343976 7.83322718 -2 8 C-2.66 8.66 -3.32 9.32 -4 10 C-4 8.35 -4 6.7 -4 5 C-4.66 4.67 -5.32 4.34 -6 4 C-2.25 0 -2.25 0 0 0 Z " fill="#99948E" transform="translate(58,78)"/>
<path d="M0 0 C0.99 0 1.98 0 3 0 C3.66 1.32 4.32 2.64 5 4 C5.99 3.67 6.98 3.34 8 3 C8.33 2.01 8.66 1.02 9 0 C9.99 0 10.98 0 12 0 C12 4.29 12 8.58 12 13 C11.34 13 10.68 13 10 13 C9.67 10.36 9.34 7.72 9 5 C7.68 5.99 6.36 6.98 5 8 C4.34 6.68 3.68 5.36 3 4 C2.34 4 1.68 4 1 4 C1 6.97 1 9.94 1 13 C0.67 13 0.34 13 0 13 C0 8.71 0 4.42 0 0 Z " fill="#887C74" transform="translate(28,63)"/>
<path d="M0 0 C5 1 5 1 7 3 C6.625 6.625 6.625 6.625 6 10 C4.02 10.33 2.04 10.66 0 11 C0 7.37 0 3.74 0 0 Z " fill="#F5EFE5" transform="translate(103,64)"/>
<path d="M0 0 C2.97 0 5.94 0 9 0 C8.67 0.66 8.34 1.32 8 2 C6.35 1.67 4.7 1.34 3 1 C3 2.32 3 3.64 3 5 C4.32 5 5.64 5 7 5 C7 5.66 7 6.32 7 7 C5.68 7 4.36 7 3 7 C3 8.65 3 10.3 3 12 C6.465 11.505 6.465 11.505 10 11 C10 11.66 10 12.32 10 13 C6.7 13 3.4 13 0 13 C0 8.71 0 4.42 0 0 Z " fill="#A49A91" transform="translate(113,63)"/>
<path d="M0 0 C0.99 0 1.98 0 3 0 C3.66 1.32 4.32 2.64 5 4 C5.598125 3.690625 6.19625 3.38125 6.8125 3.0625 C9 2 9 2 12 1 C12 4.96 12 8.92 12 13 C11.34 13 10.68 13 10 13 C9.67 10.36 9.34 7.72 9 5 C7.02 5.99 7.02 5.99 5 7 C4.01 6.01 3.02 5.02 2 4 C2 6.97 2 9.94 2 13 C1.34 13 0.68 13 0 13 C0 8.71 0 4.42 0 0 Z " fill="#887D74" transform="translate(73,63)"/>
<path d="M0 0 C0.66 0 1.32 0 2 0 C2.83819158 1.62249941 3.6704116 3.24808497 4.5 4.875 C4.9640625 5.77992187 5.428125 6.68484375 5.90625 7.6171875 C7 10 7 10 7 12 C6.01 12 5.02 12 4 12 C4 11.01 4 10.02 4 9 C1.69 9 -0.62 9 -3 9 C-3 9.99 -3 10.98 -3 12 C-3.66 12 -4.32 12 -5 12 C-3.68938409 7.76570244 -2.05643741 3.92592596 0 0 Z " fill="#D0C8BF" transform="translate(92,64)"/>
<path d="M0 0 C-0.20625 0.61875 -0.4125 1.2375 -0.625 1.875 C-0.74875 2.57625 -0.8725 3.2775 -1 4 C-0.34 4.66 0.32 5.32 1 6 C-3.455 6.495 -3.455 6.495 -8 7 C-8 6.34 -8 5.68 -8 5 C-9.65 5.33 -11.3 5.66 -13 6 C-13.33 5.34 -13.66 4.68 -14 4 C-9.59478255 -0.6054546 -6.17440927 0 0 0 Z " fill="#EFEAE4" transform="translate(103,85)"/>
<path d="M0 0 C2.67901932 2.31881505 3.66204403 4.31814468 4.6875 7.6875 C5.06455078 8.89986328 5.06455078 8.89986328 5.44921875 10.13671875 C5.63097656 10.75160156 5.81273437 11.36648437 6 12 C5.34 12 4.68 12 4 12 C4 11.01 4 10.02 4 9 C1.69 9 -0.62 9 -3 9 C-3 9.99 -3 10.98 -3 12 C-3.66 12 -4.32 12 -5 12 C-4.42365861 7.24518354 -2.44931479 4.02951788 0 0 Z " fill="#AAA097" transform="translate(47,64)"/>
<path d="M0 0 C-0.33 1.32 -0.66 2.64 -1 4 C-2.98 3.34 -4.96 2.68 -7 2 C-7 2.66 -7 3.32 -7 4 C-8.63064764 5.05771739 -10.30280873 6.05273046 -12 7 C-12.99 7.66 -13.98 8.32 -15 9 C-15 7.68 -15 6.36 -15 5 C-14.01 5 -13.02 5 -12 5 C-12 4.34 -12 3.68 -12 3 C-14.31 3.33 -16.62 3.66 -19 4 C-18.34 3.01 -17.68 2.02 -17 1 C-13.5 0.8125 -13.5 0.8125 -10 1 C-7.8219011 1.05479966 -7.8219011 1.05479966 -5 0.5 C-2 0 -2 0 0 0 Z " fill="#918C86" transform="translate(88,82)"/>
<path d="M0 0 C0 4.29 0 8.58 0 13 C-0.33 13 -0.66 13 -1 13 C-1 9.04 -1 5.08 -1 1 C-1.763125 1.680625 -2.52625 2.36125 -3.3125 3.0625 C-4.199375 3.701875 -5.08625 4.34125 -6 5 C-6.99 4.67 -7.98 4.34 -9 4 C-9 2.68 -9 1.36 -9 0 C-5.07201633 -2.61865578 -4.9623968 -1.98495872 0 0 Z " fill="#EBE4DB" transform="translate(86,63)"/>
<path d="M0 0 C2 1.375 2 1.375 4 3 C4 3.66 4 4.32 4 5 C4.66 5.33 5.32 5.66 6 6 C5.34 6 4.68 6 4 6 C4.66 7.32 5.32 8.64 6 10 C4.02 9.34 2.04 8.68 0 8 C0 5.36 0 2.72 0 0 Z " fill="#F2ECE2" transform="translate(74,66)"/>
<path d="M0 0 C2.31 0 4.62 0 7 0 C6.40138258 2.35171131 5.73075648 4.6859378 5 7 C4.01 7.495 4.01 7.495 3 8 C2.34 7.67 1.68 7.34 1 7 C1.20625 6.21625 1.4125 5.4325 1.625 4.625 C1.74875 3.75875 1.8725 2.8925 2 2 C1.34 1.34 0.68 0.68 0 0 Z " fill="#FAF3EB" transform="translate(56,76)"/>
<path d="M0 0 C0.33 0.66 0.66 1.32 1 2 C0.06553465 4.03144641 -0.93224776 6.03533587 -2 8 C-1.01 8.33 -0.02 8.66 1 9 C-0.65 9.33 -2.3 9.66 -4 10 C-4.33 8.35 -4.66 6.7 -5 5 C-4.01 5 -3.02 5 -2 5 C-2.33 4.01 -2.66 3.02 -3 2 C-2.01 1.34 -1.02 0.68 0 0 Z " fill="#A8A39D" transform="translate(68,78)"/>
<path d="M0 0 C1.98 0 3.96 0 6 0 C5.3125 1.9375 5.3125 1.9375 4 4 C1.375 4.75 1.375 4.75 -1 5 C-0.67 3.35 -0.34 1.7 0 0 Z " fill="#F4EFE7" transform="translate(50,78)"/>
<path d="M0 0 C0.66 0 1.32 0 2 0 C2.83819158 1.62249941 3.6704116 3.24808497 4.5 4.875 C4.9640625 5.77992187 5.428125 6.68484375 5.90625 7.6171875 C7 10 7 10 7 12 C6.01 12 5.02 12 4 12 C3.3291288 10.3767313 2.66342971 8.75132422 2 7.125 C1.62875 6.22007813 1.2575 5.31515625 0.875 4.3828125 C0 2 0 2 0 0 Z " fill="#6C6258" transform="translate(92,64)"/>
<path d="M0 0 C2.31 0 4.62 0 7 0 C6.01 1.485 6.01 1.485 5 3 C4.34 3 3.68 3 3 3 C2.34 4.32 1.68 5.64 1 7 C1 4 1 4 2 2 C1.34 2 0.68 2 0 2 C0 1.34 0 0.68 0 0 Z " fill="#938E88" transform="translate(101,83)"/>
<path d="M0 0 C1.98 0 3.96 0 6 0 C5.360625 0.268125 4.72125 0.53625 4.0625 0.8125 C1.66868314 1.88667752 1.66868314 1.88667752 1 5 C-1.0625 5.6875 -1.0625 5.6875 -3 6 C-2.01 4.02 -1.02 2.04 0 0 Z " fill="#F8F4EE" transform="translate(68,81)"/>
<path d="M0 0 C1.32 0 2.64 0 4 0 C3.67 1.65 3.34 3.3 3 5 C1.35 5 -0.3 5 -2 5 C-1.67 4.34 -1.34 3.68 -1 3 C-0.67 2.01 -0.34 1.02 0 0 Z " fill="#F9F5EE" transform="translate(65,74)"/>
<path d="M0 0 C3.125 -0.1875 3.125 -0.1875 6 0 C5.67 0.99 5.34 1.98 5 3 C2.69 3 0.38 3 -2 3 C-1.34 2.01 -0.68 1.02 0 0 Z " fill="#98938D" transform="translate(71,83)"/>
<path d="M0 0 C0.33 0 0.66 0 1 0 C1 2.31 1 4.62 1 7 C1.66 7 2.32 7 3 7 C2.67 8.32 2.34 9.64 2 11 C1.34 11 0.68 11 0 11 C0 7.37 0 3.74 0 0 Z " fill="#FDF8EE" transform="translate(40,64)"/>
</svg>
